<?xml version="1.0" standalone="no"?>
<!DOCTYPE svg PUBLIC "-//W3C//DTD SVG 20010904//EN"
 "http://www.w3.org/TR/2001/REC-SVG-20010904/DTD/svg10.dtd">
<svg version="1.0" xmlns="http://www.w3.org/2000/svg"
 width="144.000000pt" height="144.000000pt" viewBox="0 0 144.000000 144.000000"
 preserveAspectRatio="xMidYMid meet">

<g transform="translate(0.000000,144.000000) scale(0.100000,-0.100000)"
fill="#000000" stroke="none">
<path d="M892 1253 c-20 -18 -462 -989 -462 -1016 0 -8 9 -26 21 -41 24 -31
67 -35 97 -8 20 17 462 988 462 1015 0 8 -9 26 -21 41 -24 31 -67 35 -97 9z"/>
<path d="M158 903 c-123 -122 -158 -163 -158 -183 0 -20 35 -61 158 -183 87
-86 164 -157 170 -157 40 0 82 45 82 87 0 9 -53 69 -117 135 l-117 118 117
118 c64 66 117 126 117 135 0 42 -42 87 -82 87 -6 0 -83 -71 -170 -157z"/>
<path d="M1051 1004 c-12 -15 -21 -36 -21 -47 0 -12 45 -65 115 -137 63 -64
115 -120 115 -125 0 -5 -52 -61 -115 -125 -124 -126 -132 -143 -90 -185 48
-49 65 -39 232 128 128 127 153 158 153 182 0 24 -25 55 -153 182 -132 132
-157 153 -184 153 -22 0 -38 -8 -52 -26z"/>
</g>
</svg>
